<svg
  xmlns="http://www.w3.org/2000/svg"
  height="2rem"
  viewBox="0 0 133 133"
  fill="currentColor"
>
  <path
    d="M108.593 77.7685C103.213 77.7685 97.8101 77.9532 92.4532 77.7454C67.9313 76.7063 43.4094 75.5749 18.9106 74.3742C16.1629 74.2357 13.4382 73.7277 10.7367 73.1504C8.72782 72.7348 7.04223 71.6496 7.25004 69.2251C7.45785 66.8237 9.25889 65.9232 11.3139 65.9232C19.9497 65.9693 28.5855 65.9693 37.2212 66.3388C57.0558 67.1931 76.8903 68.2322 96.9096 68.7633C96.1014 68.3938 95.2933 68.0013 94.462 67.6549C89.6362 65.6461 84.7872 63.6603 79.9613 61.6284C79.1301 61.282 78.2757 60.7971 77.583 60.266C76.1976 59.227 76.1745 58.3496 76.3362 57.5645C76.5671 56.3407 77.5138 56.0867 78.8761 56.156C79.7304 56.2022 80.7233 56.156 81.5777 56.4331C93.2382 60.3353 104.876 64.2607 116.49 68.2784C117.945 68.7864 119.376 69.5714 120.577 70.5181C123.602 72.8964 122.979 77.0296 119.469 78.5305C109.517 82.756 99.565 86.9584 89.6131 91.1608C88.9435 91.4379 88.6433 91.5995 87.5349 91.7843C86.5651 91.9459 85.3875 91.0685 84.9719 90.3065C84.6487 89.7061 85.0181 88.2053 85.5954 87.7204C86.6806 86.8199 88.1122 86.2426 89.4745 85.7346C95.224 83.5641 100.997 81.4629 106.769 79.3386C107.416 79.1077 108.039 78.7844 108.686 78.5305C109.448 78.1148 109.933 77.907 108.593 77.7685Z"
    fill="currentColor"
  />
</svg>
