<svg
  height="2rem"
  viewBox="0 0 133 133"
  xmlns="http://www.w3.org/2000/svg"
  fill="currentColor"
>
  <path
    d="M21.1556 77.7685C26.5357 77.7685 31.9388 77.9532 37.2957 77.7454C61.8176 76.7063 86.3395 75.5749 110.838 74.3742C113.586 74.2357 116.311 73.7277 119.012 73.1504C121.021 72.7348 122.707 71.6496 122.499 69.2251C122.291 66.8237 120.49 65.9232 118.435 65.9232C109.799 65.9693 101.163 65.9693 92.5277 66.3388C72.6931 67.1931 52.8586 68.2322 32.8393 68.7633C33.6475 68.3938 34.4556 68.0013 35.2869 67.6549C40.1127 65.6461 44.9617 63.6603 49.7876 61.6284C50.6188 61.282 51.4732 60.7971 52.1659 60.2661C53.5513 59.227 53.5744 58.3496 53.4127 57.5645C53.1818 56.3407 52.2351 56.0867 50.8728 56.156C50.0185 56.2022 49.0256 56.156 48.1712 56.4331C36.5107 60.3353 24.8732 64.2607 13.2588 68.2784C11.8041 68.7864 10.3725 69.5714 9.17177 70.5181C6.14694 72.8964 6.77038 77.0296 10.2801 78.5305C20.232 82.756 30.1839 86.9584 40.1358 91.1608C40.8055 91.4379 41.1056 91.5995 42.214 91.7843C43.1838 91.9459 44.3614 91.0685 44.777 90.3065C45.1003 89.7061 44.7308 88.2053 44.1535 87.7204C43.0683 86.8199 41.6367 86.2426 40.2744 85.7346C34.5249 83.5641 28.7523 81.4629 22.9798 79.3386C22.3332 79.1077 21.7098 78.7844 21.0633 78.5305C20.3013 78.1148 19.8164 77.907 21.1556 77.7685Z"
    fill="currentColor"
  />
</svg>
