<svg width="240" height="240" viewBox="0 0 240 240" fill="none" xmlns="http://www.w3.org/2000/svg">
<path d="M144.25 39.5837C153.042 41.542 161.042 43.3753 169.167 45.167C166.75 40.2087 156.708 38.2503 157.667 34.292C159.958 30.0003 164.25 32.2503 166.583 33.7087C170.708 36.3337 174.875 39.292 178 42.9587C188.917 55.792 194.667 71.417 200.25 87.042C203.875 97.292 206.542 107.709 205.917 118.625C203.792 156.542 186.792 185.542 151.875 201.5C112.167 219.625 64.0833 198.667 48.2916 157.917C46.6249 153.625 44.4166 149.542 42.1666 145.5C36.1666 134.834 32.4999 123.792 34.5416 111.334C36.1666 101.25 40.8333 92.9587 48.0833 85.9587C49.7083 84.3753 51.4166 82.6254 52.4583 80.6254C61.7083 63.167 76.0833 51.8337 94.5833 45.5837C104.75 42.1253 114.958 38.7087 125.292 35.7503C129 34.7087 133.167 34.917 137.125 34.917C140.458 35.0837 143.375 36.2503 144.25 39.5837ZM151.208 98.8754C143.042 133.542 119.917 149.959 87.7499 156.167C89.7499 162.209 92.6666 165.542 98.2499 167.375C101.375 168.417 104.708 169.125 107.958 169.292C142 171.042 166.792 136.125 154.125 104.417C153.417 102.709 152.375 101.084 151.208 98.8754ZM117 197.667C146.792 199.167 168.542 185.5 183.667 160.959C200.25 134 199.958 105.917 186.833 77.5004C183.667 79.042 180.75 80.5004 177.708 82.0004C178.708 83.6254 179.458 84.8754 180.25 86.167C185.208 94.542 188.458 103.5 189.333 113.25C190.875 130.625 185.5 145.959 174.875 159.542C162.75 175.042 146.333 184.959 129.208 193.875C126.75 195.167 123.917 195.667 121.208 196.542C119.792 196.875 118.375 197.25 117 197.667ZM145.875 61.0837C154.25 63.4587 162.167 67.042 168.958 72.8337C169.75 73.5003 171.167 73.9587 172.125 73.7087C176.125 72.8337 184.625 70.7503 182.875 68.3337C179.417 58.1253 159.833 48.3753 145.917 49.7503C145.875 53.292 145.875 56.8753 145.875 61.0837ZM137.125 99.292C125 94.6254 95.6666 115 93.0416 129.5C105.542 127.542 128.375 113.334 135.208 103.125C136 101.959 136.5 100.584 137.125 99.292ZM138.458 88.792C133.042 85.417 126.583 83.4587 120.542 85.167C113.5 87.167 106.375 90.3337 100.417 94.542C91.0416 101.125 84.4583 110.417 81.0833 121.542C80.3333 124.042 79.5833 126.959 82.2083 129.834C83.4583 127.542 84.4583 125.5 85.5833 123.542C97.4583 103.334 113.958 90.2503 138.458 88.792ZM125.75 49.2503C106.375 48.417 91.7916 57.292 78.4999 70.792C83.6666 70.167 88.0833 69.667 92.4999 69.0837C94.4583 68.8337 96.6249 68.9587 98.2499 68.0837C106.042 63.917 114.292 61.0837 122.75 59.7504C123.792 56.1254 124.75 52.8337 125.75 49.2503ZM169.167 148.375C184.292 129.25 182.083 102.625 167.708 85.292C167.125 84.5837 166.167 83.7504 165.333 83.667C161.417 83.292 157.5 83.167 153.625 82.9587C154.167 84.0837 154.708 84.4587 155.25 84.8337C176.25 98.3337 182 117.125 172.167 140.042C171 142.792 170.167 145.625 169.167 148.375ZM78.9166 140.209C72.4999 137.25 69.5416 132.334 69.7499 125.792C69.8333 123 70.4999 120.209 71.2916 117.542C73.5416 109.75 78.0416 103.209 82.9999 96.917C83.6249 96.1254 83.8749 95.0837 84.2916 94.167C74.3333 98.9587 62.2499 124.084 66.2916 141.709C69.7499 143.084 73.6666 144.625 77.6249 146.167C78.1249 145 78.4166 144.584 78.4583 144.125C78.6666 142.917 78.7499 141.792 78.9166 140.209ZM86.7083 145.917C103.458 143.417 117.083 136.5 128.042 124.459C121.667 127.75 115.625 131.834 109.125 134.792C102.417 137.834 95.2083 139.792 87.4999 142.5C87.4583 142.709 87.1666 143.917 86.7083 145.917ZM101.833 179.709C115.792 181.917 129.25 180 141.833 173.667C145.333 171.917 148.208 168.875 151.375 166.417C151.125 165.917 150.833 165.459 150.583 164.959C135.875 175.042 119.25 178.459 101.833 179.709ZM84.4583 169.334C82.2916 164.834 80.2083 160.542 77.9999 155.917C75.2499 155.334 72.1249 154.667 68.7499 153.959C71.4166 163.459 73.9999 166 84.4583 169.334ZM63.2916 91.7087C70.4999 87.3754 77.7916 82.9587 85.4999 78.292C74.2083 77.2504 66.9166 81.8337 63.2916 91.7087ZM42.2916 127.25C42.8749 119.542 43.4166 112.542 44.0416 104.584C40.8749 112.292 40.0416 119.25 42.2916 127.25ZM138.333 53.1253C132.833 53.5003 132.667 53.7087 132 59.1253C133.542 59.292 135.083 59.4587 137.25 59.7087C137.625 57.417 137.958 55.542 138.333 53.1253Z" fill="black"/>
</svg>
